<svg xmlns="http://www.w3.org/2000/svg" width="1500" height="980" viewBox="0 0 1500 980">
<defs>
<linearGradient id="bgGrad" x1="0%" y1="0%" x2="100%" y2="100%">
<stop offset="0%" stop-color="#f4efe6" />
<stop offset="100%" stop-color="#eef7f7" />
</linearGradient>
<filter id="shadow" x="-20%" y="-20%" width="140%" height="140%">
<feDropShadow dx="0" dy="8" stdDeviation="10" flood-color="#9db3b7" flood-opacity="0.18"/>
</filter>
</defs>
<rect width="1500" height="980" fill="url(#bgGrad)"/>
<circle cx="1420" cy="70" r="120" fill="#e6f3f0" opacity="0.85"/>
<circle cx="70" cy="930" r="110" fill="#f6e6d7" opacity="0.85"/>
<text x="28" y="36" font-family="Avenir Next, Segoe UI, Arial, sans-serif" font-size="26" fill="#1e2a33" text-anchor="start">MC1 Dataset Overview</text>
<text x="28" y="60" font-family="Avenir Next, Segoe UI, Arial, sans-serif" font-size="12" fill="#6a7c89">Heterogeneous music graph for career analysis and influence tracing</text>
<rect x="28" y="88" width="1444" height="864" rx="18" fill="#fffaf3" filter="url(#shadow)"/>
<text x="46" y="116" font-family="Avenir Next, Segoe UI, Arial, sans-serif" font-size="15" font-weight="600" fill="#1e2a33">Phase 1 data snapshot</text>
<rect x="58" y="128" width="210" height="92" rx="16" fill="#fffdf9" stroke="#ecdfcf"/>
<circle cx="86" cy="156" r="9" fill="#1f7a8c"/>
<text x="106" y="161" font-family="Avenir Next, Segoe UI, Arial, sans-serif" font-size="13" fill="#6a7c89">Nodes</text>
<text x="80" y="196" font-family="Avenir Next, Segoe UI, Arial, sans-serif" font-size="28" font-weight="700" fill="#1e2a33">17,412</text>
<rect x="286" y="128" width="210" height="92" rx="16" fill="#fffdf9" stroke="#ecdfcf"/>
<circle cx="314" cy="156" r="9" fill="#3ba7a0"/>
<text x="334" y="161" font-family="Avenir Next, Segoe UI, Arial, sans-serif" font-size="13" fill="#6a7c89">Links</text>
<text x="308" y="196" font-family="Avenir Next, Segoe UI, Arial, sans-serif" font-size="28" font-weight="700" fill="#1e2a33">37,857</text>
<rect x="514" y="128" width="210" height="92" rx="16" fill="#fffdf9" stroke="#ecdfcf"/>
<circle cx="542" cy="156" r="9" fill="#d9a441"/>
<text x="562" y="161" font-family="Avenir Next, Segoe UI, Arial, sans-serif" font-size="13" fill="#6a7c89">Node types</text>
<text x="536" y="196" font-family="Avenir Next, Segoe UI, Arial, sans-serif" font-size="28" font-weight="700" fill="#1e2a33">5</text>
<rect x="742" y="128" width="210" height="92" rx="16" fill="#fffdf9" stroke="#ecdfcf"/>
<circle cx="770" cy="156" r="9" fill="#d97b4d"/>
<text x="790" y="161" font-family="Avenir Next, Segoe UI, Arial, sans-serif" font-size="13" fill="#6a7c89">Edge types</text>
<text x="764" y="196" font-family="Avenir Next, Segoe UI, Arial, sans-serif" font-size="28" font-weight="700" fill="#1e2a33">12</text>
<rect x="970" y="128" width="210" height="92" rx="16" fill="#fffdf9" stroke="#ecdfcf"/>
<circle cx="998" cy="156" r="9" fill="#7c8aa5"/>
<text x="1018" y="161" font-family="Avenir Next, Segoe UI, Arial, sans-serif" font-size="13" fill="#6a7c89">Components</text>
<text x="992" y="196" font-family="Avenir Next, Segoe UI, Arial, sans-serif" font-size="28" font-weight="700" fill="#1e2a33">16</text>
<rect x="1198" y="128" width="210" height="92" rx="16" fill="#fffdf9" stroke="#ecdfcf"/>
<circle cx="1226" cy="156" r="9" fill="#2c6e63"/>
<text x="1246" y="161" font-family="Avenir Next, Segoe UI, Arial, sans-serif" font-size="13" fill="#6a7c89">Largest CC</text>
<text x="1220" y="196" font-family="Avenir Next, Segoe UI, Arial, sans-serif" font-size="28" font-weight="700" fill="#1e2a33">17,277</text>
<rect x="58" y="252" width="430" height="290" rx="18" fill="#fffaf3" filter="url(#shadow)"/>
<text x="76" y="280" font-family="Avenir Next, Segoe UI, Arial, sans-serif" font-size="15" font-weight="600" fill="#1e2a33">Node Type Distribution</text>
<rect x="514" y="252" width="430" height="290" rx="18" fill="#fffaf3" filter="url(#shadow)"/>
<text x="532" y="280" font-family="Avenir Next, Segoe UI, Arial, sans-serif" font-size="15" font-weight="600" fill="#1e2a33">Top Edge Types</text>
<rect x="970" y="252" width="472" height="290" rx="18" fill="#fffaf3" filter="url(#shadow)"/>
<text x="988" y="280" font-family="Avenir Next, Segoe UI, Arial, sans-serif" font-size="15" font-weight="600" fill="#1e2a33">Top Song Genres</text>
<rect x="58" y="572" width="1384" height="250" rx="18" fill="#fffaf3" filter="url(#shadow)"/>
<text x="76" y="600" font-family="Avenir Next, Segoe UI, Arial, sans-serif" font-size="15" font-weight="600" fill="#1e2a33">Song Release Timeline</text>
<line x1="241.79999999999998" y1="327.28" x2="452.0" y2="327.28" stroke="#d9e1e7" stroke-width="8" stroke-linecap="round"/>
<line x1="241.79999999999998" y1="327.28" x2="452.0" y2="327.28" stroke="#1f7a8c" stroke-width="8" stroke-linecap="round"/>
<text x="231.79999999999998" y="331.28" font-family="Avenir Next, Segoe UI, Arial, sans-serif" font-size="11" fill="#1e2a33" text-anchor="end">Person</text>
<text x="460.0" y="331.28" font-family="Avenir Next, Segoe UI, Arial, sans-serif" font-size="11" font-weight="600" fill="#5c6b73">11361</text>
<line x1="241.79999999999998" y1="371.28" x2="452.0" y2="371.28" stroke="#d9e1e7" stroke-width="8" stroke-linecap="round"/>
<line x1="241.79999999999998" y1="371.28" x2="308.7" y2="371.28" stroke="#1f7a8c" stroke-width="8" stroke-linecap="round"/>
<text x="231.79999999999998" y="375.28" font-family="Avenir Next, Segoe UI, Arial, sans-serif" font-size="11" fill="#1e2a33" text-anchor="end">Song</text>
<text x="316.7" y="375.28" font-family="Avenir Next, Segoe UI, Arial, sans-serif" font-size="11" font-weight="600" fill="#5c6b73">3615</text>
<line x1="241.79999999999998" y1="415.28" x2="452.0" y2="415.28" stroke="#d9e1e7" stroke-width="8" stroke-linecap="round"/>
<line x1="241.79999999999998" y1="415.28" x2="264.3" y2="415.28" stroke="#1f7a8c" stroke-width="8" stroke-linecap="round"/>
<text x="231.79999999999998" y="419.28" font-family="Avenir Next, Segoe UI, Arial, sans-serif" font-size="11" fill="#1e2a33" text-anchor="end">RecordLabel</text>
<text x="272.3" y="419.28" font-family="Avenir Next, Segoe UI, Arial, sans-serif" font-size="11" font-weight="600" fill="#5c6b73">1217</text>
<line x1="241.79999999999998" y1="459.28" x2="452.0" y2="459.28" stroke="#d9e1e7" stroke-width="8" stroke-linecap="round"/>
<line x1="241.79999999999998" y1="459.28" x2="260.2" y2="459.28" stroke="#1f7a8c" stroke-width="8" stroke-linecap="round"/>
<text x="231.79999999999998" y="463.28" font-family="Avenir Next, Segoe UI, Arial, sans-serif" font-size="11" fill="#1e2a33" text-anchor="end">Album</text>
<text x="268.2" y="463.28" font-family="Avenir Next, Segoe UI, Arial, sans-serif" font-size="11" font-weight="600" fill="#5c6b73">996</text>
<line x1="241.79999999999998" y1="503.28" x2="452.0" y2="503.28" stroke="#d9e1e7" stroke-width="8" stroke-linecap="round"/>
<line x1="241.79999999999998" y1="503.28" x2="245.9" y2="503.28" stroke="#1f7a8c" stroke-width="8" stroke-linecap="round"/>
<text x="231.79999999999998" y="507.28" font-family="Avenir Next, Segoe UI, Arial, sans-serif" font-size="11" fill="#1e2a33" text-anchor="end">MusicalGroup</text>
<text x="253.9" y="507.28" font-family="Avenir Next, Segoe UI, Arial, sans-serif" font-size="11" font-weight="600" fill="#5c6b73">223</text>
<line x1="697.8" y1="317.05" x2="908.0" y2="317.05" stroke="#d9e1e7" stroke-width="8" stroke-linecap="round"/>
<line x1="697.8" y1="317.05" x2="908.0" y2="317.05" stroke="#d97b4d" stroke-width="8" stroke-linecap="round"/>
<text x="687.8" y="321.05" font-family="Avenir Next, Segoe UI, Arial, sans-serif" font-size="11" fill="#1e2a33" text-anchor="end">PerformerOf</text>
<text x="916.0" y="321.05" font-family="Avenir Next, Segoe UI, Arial, sans-serif" font-size="11" font-weight="600" fill="#5c6b73">13587</text>
<line x1="697.8" y1="344.55" x2="908.0" y2="344.55" stroke="#d9e1e7" stroke-width="8" stroke-linecap="round"/>
<line x1="697.8" y1="344.55" x2="756.6" y2="344.55" stroke="#d97b4d" stroke-width="8" stroke-linecap="round"/>
<text x="687.8" y="348.55" font-family="Avenir Next, Segoe UI, Arial, sans-serif" font-size="11" fill="#1e2a33" text-anchor="end">RecordedBy</text>
<text x="764.6" y="348.55" font-family="Avenir Next, Segoe UI, Arial, sans-serif" font-size="11" font-weight="600" fill="#5c6b73">3798</text>
<line x1="697.8" y1="372.05" x2="908.0" y2="372.05" stroke="#d9e1e7" stroke-width="8" stroke-linecap="round"/>
<line x1="697.8" y1="372.05" x2="748.7" y2="372.05" stroke="#d97b4d" stroke-width="8" stroke-linecap="round"/>
<text x="687.8" y="376.05" font-family="Avenir Next, Segoe UI, Arial, sans-serif" font-size="11" fill="#1e2a33" text-anchor="end">ComposerOf</text>
<text x="756.7" y="376.05" font-family="Avenir Next, Segoe UI, Arial, sans-serif" font-size="11" font-weight="600" fill="#5c6b73">3290</text>
<line x1="697.8" y1="399.55" x2="908.0" y2="399.55" stroke="#d9e1e7" stroke-width="8" stroke-linecap="round"/>
<line x1="697.8" y1="399.55" x2="747.4" y2="399.55" stroke="#d97b4d" stroke-width="8" stroke-linecap="round"/>
<text x="687.8" y="403.55" font-family="Avenir Next, Segoe UI, Arial, sans-serif" font-size="11" fill="#1e2a33" text-anchor="end">ProducerOf</text>
<text x="755.4" y="403.55" font-family="Avenir Next, Segoe UI, Arial, sans-serif" font-size="11" font-weight="600" fill="#5c6b73">3209</text>
<line x1="697.8" y1="427.05" x2="908.0" y2="427.05" stroke="#d9e1e7" stroke-width="8" stroke-linecap="round"/>
<line x1="697.8" y1="427.05" x2="744.4" y2="427.05" stroke="#d97b4d" stroke-width="8" stroke-linecap="round"/>
<text x="687.8" y="431.05" font-family="Avenir Next, Segoe UI, Arial, sans-serif" font-size="11" fill="#1e2a33" text-anchor="end">DistributedBy</text>
<text x="752.4" y="431.05" font-family="Avenir Next, Segoe UI, Arial, sans-serif" font-size="11" font-weight="600" fill="#5c6b73">3013</text>
<line x1="697.8" y1="454.55" x2="908.0" y2="454.55" stroke="#d9e1e7" stroke-width="8" stroke-linecap="round"/>
<line x1="697.8" y1="454.55" x2="744.0" y2="454.55" stroke="#d97b4d" stroke-width="8" stroke-linecap="round"/>
<text x="687.8" y="458.55" font-family="Avenir Next, Segoe UI, Arial, sans-serif" font-size="11" fill="#1e2a33" text-anchor="end">LyricistOf</text>
<text x="752.0" y="458.55" font-family="Avenir Next, Segoe UI, Arial, sans-serif" font-size="11" font-weight="600" fill="#5c6b73">2985</text>
<line x1="697.8" y1="482.05" x2="908.0" y2="482.05" stroke="#d9e1e7" stroke-width="8" stroke-linecap="round"/>
<line x1="697.8" y1="482.05" x2="733.2" y2="482.05" stroke="#d97b4d" stroke-width="8" stroke-linecap="round"/>
<text x="687.8" y="486.05" font-family="Avenir Next, Segoe UI, Arial, sans-serif" font-size="11" fill="#1e2a33" text-anchor="end">InStyleOf</text>
<text x="741.2" y="486.05" font-family="Avenir Next, Segoe UI, Arial, sans-serif" font-size="11" font-weight="600" fill="#5c6b73">2289</text>
<line x1="697.8" y1="509.55" x2="908.0" y2="509.55" stroke="#d9e1e7" stroke-width="8" stroke-linecap="round"/>
<line x1="697.8" y1="509.55" x2="722.2" y2="509.55" stroke="#d97b4d" stroke-width="8" stroke-linecap="round"/>
<text x="687.8" y="513.55" font-family="Avenir Next, Segoe UI, Arial, sans-serif" font-size="11" fill="#1e2a33" text-anchor="end">InterpolatesFrom</text>
<text x="730.2" y="513.55" font-family="Avenir Next, Segoe UI, Arial, sans-serif" font-size="11" font-weight="600" fill="#5c6b73">1574</text>
<line x1="1170.6" y1="317.05" x2="1404.0" y2="317.05" stroke="#d9e1e7" stroke-width="8" stroke-linecap="round"/>
<line x1="1170.6" y1="317.05" x2="1404.0" y2="317.05" stroke="#d9a441" stroke-width="8" stroke-linecap="round"/>
<text x="1160.6" y="321.05" font-family="Avenir Next, Segoe UI, Arial, sans-serif" font-size="11" fill="#1e2a33" text-anchor="end">Dream Pop</text>
<text x="1412.0" y="321.05" font-family="Avenir Next, Segoe UI, Arial, sans-serif" font-size="11" font-weight="600" fill="#5c6b73">590</text>
<line x1="1170.6" y1="344.55" x2="1404.0" y2="344.55" stroke="#d9e1e7" stroke-width="8" stroke-linecap="round"/>
<line x1="1170.6" y1="344.55" x2="1305.9" y2="344.55" stroke="#d9a441" stroke-width="8" stroke-linecap="round"/>
<text x="1160.6" y="348.55" font-family="Avenir Next, Segoe UI, Arial, sans-serif" font-size="11" fill="#1e2a33" text-anchor="end">Indie Folk</text>
<text x="1313.9" y="348.55" font-family="Avenir Next, Segoe UI, Arial, sans-serif" font-size="11" font-weight="600" fill="#5c6b73">342</text>
<line x1="1170.6" y1="372.05" x2="1404.0" y2="372.05" stroke="#d9e1e7" stroke-width="8" stroke-linecap="round"/>
<line x1="1170.6" y1="372.05" x2="1292.4" y2="372.05" stroke="#d9a441" stroke-width="8" stroke-linecap="round"/>
<text x="1160.6" y="376.05" font-family="Avenir Next, Segoe UI, Arial, sans-serif" font-size="11" fill="#1e2a33" text-anchor="end">Synthwave</text>
<text x="1300.4" y="376.05" font-family="Avenir Next, Segoe UI, Arial, sans-serif" font-size="11" font-weight="600" fill="#5c6b73">308</text>
<line x1="1170.6" y1="399.55" x2="1404.0" y2="399.55" stroke="#d9e1e7" stroke-width="8" stroke-linecap="round"/>
<line x1="1170.6" y1="399.55" x2="1276.6" y2="399.55" stroke="#d9a441" stroke-width="8" stroke-linecap="round"/>
<text x="1160.6" y="403.55" font-family="Avenir Next, Segoe UI, Arial, sans-serif" font-size="11" fill="#1e2a33" text-anchor="end">Doom Metal</text>
<text x="1284.6" y="403.55" font-family="Avenir Next, Segoe UI, Arial, sans-serif" font-size="11" font-weight="600" fill="#5c6b73">268</text>
<line x1="1170.6" y1="427.05" x2="1404.0" y2="427.05" stroke="#d9e1e7" stroke-width="8" stroke-linecap="round"/>
<line x1="1170.6" y1="427.05" x2="1263.6" y2="427.05" stroke="#d9a441" stroke-width="8" stroke-linecap="round"/>
<text x="1160.6" y="431.05" font-family="Avenir Next, Segoe UI, Arial, sans-serif" font-size="11" fill="#1e2a33" text-anchor="end">Oceanus Folk</text>
<text x="1271.6" y="431.05" font-family="Avenir Next, Segoe UI, Arial, sans-serif" font-size="11" font-weight="600" fill="#5c6b73">235</text>
<line x1="1170.6" y1="454.55" x2="1404.0" y2="454.55" stroke="#d9e1e7" stroke-width="8" stroke-linecap="round"/>
<line x1="1170.6" y1="454.55" x2="1251.7" y2="454.55" stroke="#d9a441" stroke-width="8" stroke-linecap="round"/>
<text x="1160.6" y="458.55" font-family="Avenir Next, Segoe UI, Arial, sans-serif" font-size="11" fill="#1e2a33" text-anchor="end">Alternative Rock</text>
<text x="1259.7" y="458.55" font-family="Avenir Next, Segoe UI, Arial, sans-serif" font-size="11" font-weight="600" fill="#5c6b73">205</text>
<line x1="1170.6" y1="482.05" x2="1404.0" y2="482.05" stroke="#d9e1e7" stroke-width="8" stroke-linecap="round"/>
<line x1="1170.6" y1="482.05" x2="1243.8" y2="482.05" stroke="#d9a441" stroke-width="8" stroke-linecap="round"/>
<text x="1160.6" y="486.05" font-family="Avenir Next, Segoe UI, Arial, sans-serif" font-size="11" fill="#1e2a33" text-anchor="end">Southern Gothic Rock</text>
<text x="1251.8" y="486.05" font-family="Avenir Next, Segoe UI, Arial, sans-serif" font-size="11" font-weight="600" fill="#5c6b73">185</text>
<line x1="1170.6" y1="509.55" x2="1404.0" y2="509.55" stroke="#d9e1e7" stroke-width="8" stroke-linecap="round"/>
<line x1="1170.6" y1="509.55" x2="1232.3" y2="509.55" stroke="#d9a441" stroke-width="8" stroke-linecap="round"/>
<text x="1160.6" y="513.55" font-family="Avenir Next, Segoe UI, Arial, sans-serif" font-size="11" fill="#1e2a33" text-anchor="end">Indie Rock</text>
<text x="1240.3" y="513.55" font-family="Avenir Next, Segoe UI, Arial, sans-serif" font-size="11" font-weight="600" fill="#5c6b73">156</text>
<line x1="88" y1="772" x2="1412" y2="772" stroke="#b8c4ce"/>
<rect x="88.5" y="769.9" width="19.7" height="2.1" rx="1.5" fill="#3ba7a0"/>
<text x="98.84375" y="786" font-family="Avenir Next, Segoe UI, Arial, sans-serif" font-size="9" fill="#1e2a33" text-anchor="middle">1975</text>
<rect x="109.2" y="770.3" width="19.7" height="1.7" rx="1.5" fill="#3ba7a0"/>
<rect x="129.9" y="769.9" width="19.7" height="2.1" rx="1.5" fill="#3ba7a0"/>
<rect x="150.6" y="770.7" width="19.7" height="1.3" rx="1.5" fill="#3ba7a0"/>
<rect x="171.2" y="768.2" width="19.7" height="3.8" rx="1.5" fill="#3ba7a0"/>
<rect x="191.9" y="770.7" width="19.7" height="1.3" rx="1.5" fill="#3ba7a0"/>
<rect x="212.6" y="770.7" width="19.7" height="1.3" rx="1.5" fill="#3ba7a0"/>
<rect x="233.3" y="763.6" width="19.7" height="8.4" rx="1.5" fill="#3ba7a0"/>
<rect x="254.0" y="766.5" width="19.7" height="5.5" rx="1.5" fill="#3ba7a0"/>
<text x="264.34375" y="786" font-family="Avenir Next, Segoe UI, Arial, sans-serif" font-size="9" fill="#1e2a33" text-anchor="middle">1985</text>
<rect x="274.7" y="768.6" width="19.7" height="3.4" rx="1.5" fill="#3ba7a0"/>
<rect x="295.4" y="761.0" width="19.7" height="11.0" rx="1.5" fill="#3ba7a0"/>
<rect x="316.1" y="771.2" width="19.7" height="0.8" rx="1.5" fill="#3ba7a0"/>
<rect x="336.8" y="766.9" width="19.7" height="5.1" rx="1.5" fill="#3ba7a0"/>
<rect x="357.4" y="769.5" width="19.7" height="2.5" rx="1.5" fill="#3ba7a0"/>
<rect x="378.1" y="758.1" width="19.7" height="13.9" rx="1.5" fill="#3ba7a0"/>
<rect x="398.8" y="766.1" width="19.7" height="5.9" rx="1.5" fill="#3ba7a0"/>
<rect x="419.5" y="766.9" width="19.7" height="5.1" rx="1.5" fill="#3ba7a0"/>
<text x="429.84375" y="786" font-family="Avenir Next, Segoe UI, Arial, sans-serif" font-size="9" fill="#1e2a33" text-anchor="middle">1993</text>
<rect x="440.2" y="758.1" width="19.7" height="13.9" rx="1.5" fill="#3ba7a0"/>
<rect x="460.9" y="766.5" width="19.7" height="5.5" rx="1.5" fill="#3ba7a0"/>
<rect x="481.6" y="765.7" width="19.7" height="6.3" rx="1.5" fill="#3ba7a0"/>
<rect x="502.2" y="746.7" width="19.7" height="25.3" rx="1.5" fill="#3ba7a0"/>
<rect x="522.9" y="767.4" width="19.7" height="4.6" rx="1.5" fill="#3ba7a0"/>
<rect x="543.6" y="765.7" width="19.7" height="6.3" rx="1.5" fill="#3ba7a0"/>
<rect x="564.3" y="748.4" width="19.7" height="23.6" rx="1.5" fill="#3ba7a0"/>
<rect x="585.0" y="766.9" width="19.7" height="5.1" rx="1.5" fill="#3ba7a0"/>
<text x="595.34375" y="786" font-family="Avenir Next, Segoe UI, Arial, sans-serif" font-size="9" fill="#1e2a33" text-anchor="middle">2001</text>
<rect x="605.7" y="765.3" width="19.7" height="6.7" rx="1.5" fill="#3ba7a0"/>
<rect x="626.4" y="758.9" width="19.7" height="13.1" rx="1.5" fill="#3ba7a0"/>
<rect x="647.1" y="730.3" width="19.7" height="41.7" rx="1.5" fill="#3ba7a0"/>
<rect x="667.8" y="762.7" width="19.7" height="9.3" rx="1.5" fill="#3ba7a0"/>
<rect x="688.4" y="764.0" width="19.7" height="8.0" rx="1.5" fill="#3ba7a0"/>
<rect x="709.1" y="723.9" width="19.7" height="48.1" rx="1.5" fill="#3ba7a0"/>
<rect x="729.8" y="761.9" width="19.7" height="10.1" rx="1.5" fill="#3ba7a0"/>
<rect x="750.5" y="758.1" width="19.7" height="13.9" rx="1.5" fill="#3ba7a0"/>
<text x="760.84375" y="786" font-family="Avenir Next, Segoe UI, Arial, sans-serif" font-size="9" fill="#1e2a33" text-anchor="middle">2009</text>
<rect x="771.2" y="707.9" width="19.7" height="64.1" rx="1.5" fill="#3ba7a0"/>
<rect x="791.9" y="759.8" width="19.7" height="12.2" rx="1.5" fill="#3ba7a0"/>
<rect x="812.6" y="756.0" width="19.7" height="16.0" rx="1.5" fill="#3ba7a0"/>
<rect x="833.2" y="676.3" width="19.7" height="95.7" rx="1.5" fill="#3ba7a0"/>
<rect x="853.9" y="753.9" width="19.7" height="18.1" rx="1.5" fill="#3ba7a0"/>
<rect x="874.6" y="754.7" width="19.7" height="17.3" rx="1.5" fill="#3ba7a0"/>
<rect x="895.3" y="753.9" width="19.7" height="18.1" rx="1.5" fill="#3ba7a0"/>
<rect x="916.0" y="669.5" width="19.7" height="102.5" rx="1.5" fill="#3ba7a0"/>
<text x="926.34375" y="786" font-family="Avenir Next, Segoe UI, Arial, sans-serif" font-size="9" fill="#1e2a33" text-anchor="middle">2017</text>
<rect x="936.7" y="746.7" width="19.7" height="25.3" rx="1.5" fill="#3ba7a0"/>
<rect x="957.4" y="746.7" width="19.7" height="25.3" rx="1.5" fill="#3ba7a0"/>
<rect x="978.1" y="660.3" width="19.7" height="111.7" rx="1.5" fill="#3ba7a0"/>
<rect x="998.8" y="749.7" width="19.7" height="22.3" rx="1.5" fill="#3ba7a0"/>
<rect x="1019.4" y="737.0" width="19.7" height="35.0" rx="1.5" fill="#3ba7a0"/>
<rect x="1040.1" y="632.0" width="19.7" height="140.0" rx="1.5" fill="#3ba7a0"/>
<rect x="1060.8" y="712.5" width="19.7" height="59.5" rx="1.5" fill="#3ba7a0"/>
<rect x="1081.5" y="720.6" width="19.7" height="51.4" rx="1.5" fill="#3ba7a0"/>
<text x="1091.84375" y="786" font-family="Avenir Next, Segoe UI, Arial, sans-serif" font-size="9" fill="#1e2a33" text-anchor="middle">2025</text>
<rect x="1102.2" y="663.2" width="19.7" height="108.8" rx="1.5" fill="#3ba7a0"/>
<rect x="1122.9" y="707.9" width="19.7" height="64.1" rx="1.5" fill="#3ba7a0"/>
<rect x="1143.6" y="716.8" width="19.7" height="55.2" rx="1.5" fill="#3ba7a0"/>
<rect x="1164.2" y="685.6" width="19.7" height="86.4" rx="1.5" fill="#3ba7a0"/>
<rect x="1184.9" y="749.7" width="19.7" height="22.3" rx="1.5" fill="#3ba7a0"/>
<rect x="1205.6" y="760.2" width="19.7" height="11.8" rx="1.5" fill="#3ba7a0"/>
<rect x="1226.3" y="766.5" width="19.7" height="5.5" rx="1.5" fill="#3ba7a0"/>
<rect x="1247.0" y="764.0" width="19.7" height="8.0" rx="1.5" fill="#3ba7a0"/>
<text x="1257.34375" y="786" font-family="Avenir Next, Segoe UI, Arial, sans-serif" font-size="9" fill="#1e2a33" text-anchor="middle">2033</text>
<rect x="1267.7" y="763.6" width="19.7" height="8.4" rx="1.5" fill="#3ba7a0"/>
<rect x="1288.4" y="763.1" width="19.7" height="8.9" rx="1.5" fill="#3ba7a0"/>
<rect x="1309.1" y="766.1" width="19.7" height="5.9" rx="1.5" fill="#3ba7a0"/>
<rect x="1329.8" y="769.5" width="19.7" height="2.5" rx="1.5" fill="#3ba7a0"/>
<rect x="1350.4" y="769.5" width="19.7" height="2.5" rx="1.5" fill="#3ba7a0"/>
<rect x="1371.1" y="770.3" width="19.7" height="1.7" rx="1.5" fill="#3ba7a0"/>
<rect x="1391.8" y="771.2" width="19.7" height="0.8" rx="1.5" fill="#3ba7a0"/>
<text x="60" y="862" font-family="Avenir Next, Segoe UI, Arial, sans-serif" font-size="14" fill="#6a7c89">Person nodes dominate the graph, but analytical tasks center on song-based relations. Sailor Shift has 60 direct ego-network links.</text>
</svg>